# xmcd
#
# Track frame offsets:
#	150
#	16768
#	32439
#	47838
#	61599
#	82652
#	100828
#	120461
#	135137
#	156946
#	176100
#	193780
#	218113
#
# Disc length: 3136 seconds
#
# Revision: 1
# Processed by: cddbd v1.5.2PL0 Copyright (c) Steve Scherf et al.
# Submitted via: audiograbber 1.83.01
#
DISCID=970c3e0d
DTITLE=Various Artist - Punk Goes Pop Volume 5
DYEAR=2012
DGENRE=Pop
TTITLE0=Memphis May Fire - Grenade
TTITLE1=Upon this dawning - Call Me Maybe
TTITLE2=Mayday Parade - Somebody That I Used To Know (Feat. Vic Fuentes) 
TTITLE3=We came as romans - Glad You Came
TTITLE4=Like moths to flames - Some Nights
TTITLE5=Breathe carolina - Billie Jean
TTITLE6=Forever the sickest kids - We Found Love
TTITLE7=Issues - Boyfriend
TTITLE8=The Maine - Girls Just Want To Have Fun (Feat. Adam Lazzara)
TTITLE9=Craig Owens - Payphone
TTITLE10=Crown the empire - Paradise
TTITLE11=The word alive - Mercy
TTITLE12=Secrets - Ass Back Home
EXTD=
EXTT0=
EXTT1=
EXTT2=
EXTT3=
EXTT4=
EXTT5=
EXTT6=
EXTT7=
EXTT8=
EXTT9=
EXTT10=
EXTT11=
EXTT12=
PLAYORDER=
